<svg xmlns="http://www.w3.org/2000/svg" xmlns:xlink="http://www.w3.org/1999/xlink" width="500" zoomAndPan="magnify" viewBox="0 0 375 374.999991" height="500" preserveAspectRatio="xMidYMid meet" version="1.0"><defs><g/><clipPath id="a769cd96e2"><path d="M 81.609375 139 L 243 139 L 243 203 L 81.609375 203 Z M 81.609375 139 " clip-rule="nonzero"/></clipPath><clipPath id="9bd770857e"><path d="M 183 204 L 204 204 L 204 227.304688 L 183 227.304688 Z M 183 204 " clip-rule="nonzero"/></clipPath><clipPath id="a540ced232"><path d="M 181 203 L 203 203 L 203 227.304688 L 181 227.304688 Z M 181 203 " clip-rule="nonzero"/></clipPath><clipPath id="2f0bc37a0a"><path d="M 238 175 L 263.859375 175 L 263.859375 181 L 238 181 Z M 238 175 " clip-rule="nonzero"/></clipPath><clipPath id="b49e6339de"><path d="M 234 179 L 263.859375 179 L 263.859375 184 L 234 184 Z M 234 179 " clip-rule="nonzero"/></clipPath><clipPath id="df93ab28ce"><path d="M 153 89.304688 L 230 89.304688 L 230 134 L 153 134 Z M 153 89.304688 " clip-rule="nonzero"/></clipPath></defs><g clip-path="url(#a769cd96e2)"><path fill="#5e2d16" d="M 82.316406 147.46875 C 91.46875 142.34375 101.640625 139.023438 112.210938 141.835938 C 122.496094 144.539062 129.558594 152.703125 135.15625 161.261719 C 144.59375 175.675781 152.109375 189.695312 168.214844 197.691406 C 184.660156 205.855469 200.257812 203.65625 216.476562 196.226562 C 223.539062 193.015625 230.886719 189.695312 235.351562 182.996094 C 239.648438 176.574219 240.945312 168.863281 242.191406 161.429688 C 242.246094 161.035156 241.625 160.921875 241.566406 161.316406 C 239.589844 171.171875 237.273438 181.585938 228.796875 188.003906 C 221.675781 193.410156 211.785156 197.410156 203.253906 199.886719 C 184.265625 205.402344 164.316406 197.691406 151.429688 183.21875 C 140.523438 171 135.492188 153.433594 121.140625 144.371094 C 109.214844 136.769531 93.050781 138.570312 81.804688 146.734375 C 81.355469 147.128906 81.863281 147.75 82.316406 147.46875 Z M 82.316406 147.46875 " fill-opacity="1" fill-rule="nonzero"/></g><path fill="#5e2d16" d="M 95.992188 141.894531 C 96.5 140.089844 103.621094 143.75 104.46875 144.3125 C 107.179688 146.058594 108.707031 148.367188 110.683594 150.84375 C 110.96875 151.238281 111.589844 150.902344 111.417969 150.449219 C 110.230469 146.847656 106.558594 143.75 103.28125 142.117188 C 101.585938 141.273438 96.441406 138.738281 95.144531 141.160156 C 95.085938 141.328125 95.085938 141.5 95.199219 141.667969 C 95.257812 141.78125 95.371094 141.894531 95.425781 142.003906 C 95.59375 142.230469 95.878906 142.117188 95.992188 141.894531 Z M 95.992188 141.894531 " fill-opacity="1" fill-rule="nonzero"/><path fill="#5e2d16" d="M 107.464844 145.722656 C 115.148438 149.269531 118.539062 155.855469 119.386719 163.964844 C 119.445312 164.640625 120.460938 164.527344 120.460938 163.851562 C 120.179688 155.6875 115.828125 147.691406 107.800781 144.988281 C 107.351562 144.878906 107.011719 145.496094 107.464844 145.722656 Z M 107.464844 145.722656 " fill-opacity="1" fill-rule="nonzero"/><path fill="#5e2d16" d="M 120.519531 164.078125 C 115.429688 161.769531 110.402344 157.207031 109.554688 151.519531 C 109.160156 148.816406 109.328125 146.117188 106.898438 144.3125 C 106.503906 144.03125 105.824219 144.484375 106.21875 144.933594 C 109.382812 148.929688 107.6875 154 111.136719 158.050781 C 113.625 160.921875 116.449219 163.851562 120.292969 164.753906 C 120.6875 164.921875 120.914062 164.300781 120.519531 164.078125 Z M 120.519531 164.078125 " fill-opacity="1" fill-rule="nonzero"/><path fill="#5e2d16" d="M 125.828125 131.925781 C 120.855469 135.8125 113.226562 139.695312 106.785156 139.867188 C 106.21875 139.867188 106.277344 140.65625 106.726562 140.765625 C 110.34375 141.835938 114.074219 139.808594 117.296875 138.347656 C 120.6875 136.824219 123.738281 135.136719 126.28125 132.378906 C 126.507812 132.097656 126.113281 131.644531 125.828125 131.925781 Z M 125.828125 131.925781 " fill-opacity="1" fill-rule="nonzero"/><path fill="#5e2d16" d="M 118.933594 137.390625 C 123.230469 137.277344 128.597656 136.261719 132.441406 134.347656 C 136.339844 132.433594 138.375 128.15625 140.242188 124.4375 C 140.578125 123.707031 139.5625 123.257812 139.167969 123.933594 C 136.566406 128.15625 134.929688 132.207031 129.84375 133.953125 C 126.226562 135.191406 122.4375 135.644531 118.820312 136.601562 C 118.3125 136.714844 118.484375 137.390625 118.933594 137.390625 Z M 118.933594 137.390625 " fill-opacity="1" fill-rule="nonzero"/><path fill="#5e2d16" d="M 139.617188 123.820312 C 135.210938 123.652344 130.578125 124.042969 126.734375 126.351562 C 122.722656 128.605469 120.628906 132.601562 118.710938 136.601562 C 118.3125 137.445312 119.671875 138.121094 120.066406 137.21875 C 121.816406 133.449219 123.683594 129.5625 127.414062 127.308594 C 131.085938 125.113281 135.492188 124.890625 139.675781 124.777344 C 140.355469 124.777344 140.242188 123.820312 139.617188 123.820312 Z M 139.617188 123.820312 " fill-opacity="1" fill-rule="nonzero"/><path fill="#5e2d16" d="M 119.386719 144.371094 C 125.207031 147.75 132.441406 147.75 138.941406 146.902344 C 139.617188 146.792969 139.507812 145.945312 138.882812 145.890625 C 135.605469 145.722656 132.328125 146.171875 129.050781 146.003906 C 125.71875 145.777344 122.777344 144.539062 119.613281 143.808594 C 119.21875 143.695312 119.105469 144.203125 119.386719 144.371094 Z M 119.386719 144.371094 " fill-opacity="1" fill-rule="nonzero"/><path fill="#5e2d16" d="M 127.582031 146.902344 C 132.441406 145.722656 137.019531 143.921875 142.105469 144.03125 C 146.625 144.144531 150.640625 145.664062 154.992188 146.792969 C 155.5 146.902344 155.78125 146.117188 155.273438 145.890625 C 145.835938 141.835938 136.679688 142.003906 127.355469 146.226562 C 126.847656 146.398438 127.074219 147.015625 127.582031 146.902344 Z M 127.582031 146.902344 " fill-opacity="1" fill-rule="nonzero"/><path fill="#5e2d16" d="M 155.101562 146.058594 C 151.542969 146.398438 148.320312 148.085938 144.875 148.988281 C 138.996094 150.507812 134.195312 148.480469 128.9375 145.835938 C 128.371094 145.554688 127.808594 146.398438 128.316406 146.734375 C 136.566406 152.367188 146.796875 151.800781 155.160156 146.339844 C 155.386719 146.285156 155.273438 146.058594 155.101562 146.058594 Z M 155.101562 146.058594 " fill-opacity="1" fill-rule="nonzero"/><path fill="#5e2d16" d="M 120.460938 144.988281 C 123.003906 147.691406 125.773438 150.28125 127.75 153.433594 C 130.351562 157.546875 130.519531 161.769531 131.085938 166.386719 C 131.140625 166.890625 131.933594 166.949219 131.988281 166.441406 C 132.835938 157.039062 127.976562 150.226562 120.96875 144.425781 C 120.574219 144.03125 120.121094 144.59375 120.460938 144.988281 Z M 120.460938 144.988281 " fill-opacity="1" fill-rule="nonzero"/><path fill="#5e2d16" d="M 130.859375 160.753906 C 130.691406 161.09375 133.402344 164.695312 133.628906 165.316406 C 134.644531 167.679688 134.871094 170.15625 134.703125 172.691406 C 134.417969 177.25 132.554688 181.304688 130.464844 185.304688 C 130.066406 186.089844 131.253906 186.65625 131.652344 185.867188 C 135.550781 178.378906 139.730469 165.878906 130.914062 159.910156 C 130.632812 159.742188 130.179688 159.964844 130.292969 160.304688 C 130.351562 160.417969 130.40625 160.585938 130.464844 160.699219 C 130.632812 160.867188 130.804688 160.867188 130.859375 160.753906 Z M 130.859375 160.753906 " fill-opacity="1" fill-rule="nonzero"/><path fill="#5e2d16" d="M 131.140625 185.527344 C 126.621094 176.351562 126.960938 167.679688 130.914062 158.222656 C 131.3125 157.320312 129.957031 156.699219 129.558594 157.601562 C 126.394531 164.921875 122.777344 180.011719 130.746094 185.753906 C 130.972656 185.867188 131.253906 185.753906 131.140625 185.527344 Z M 131.140625 185.527344 " fill-opacity="1" fill-rule="nonzero"/><path fill="#5e2d16" d="M 147.8125 160.078125 C 144.421875 159.289062 141.03125 159.179688 137.753906 157.714844 C 134.816406 156.417969 132.613281 154.449219 130.40625 152.195312 C 129.957031 151.746094 129.21875 152.421875 129.617188 152.929688 C 133.796875 158.445312 140.976562 160.921875 147.757812 160.867188 C 148.265625 160.921875 148.265625 160.191406 147.8125 160.078125 Z M 147.8125 160.078125 " fill-opacity="1" fill-rule="nonzero"/><path fill="#5e2d16" d="M 137.074219 158.445312 C 147.925781 155.347656 156.175781 159.964844 165.445312 164.921875 C 166.011719 165.203125 166.574219 164.359375 166.066406 164.019531 C 157.757812 158.613281 146.625 152.984375 136.851562 157.714844 C 136.398438 157.941406 136.625 158.613281 137.074219 158.445312 Z M 137.074219 158.445312 " fill-opacity="1" fill-rule="nonzero"/><path fill="#5e2d16" d="M 166.179688 164.472656 C 157.421875 165.597656 144.195312 166.496094 138.660156 157.941406 C 138.207031 157.265625 137.1875 157.996094 137.585938 158.671875 C 143.234375 167.398438 157.308594 167.511719 166.292969 165.203125 C 166.6875 165.035156 166.574219 164.414062 166.179688 164.472656 Z M 166.179688 164.472656 " fill-opacity="1" fill-rule="nonzero"/><path fill="#5e2d16" d="M 144.59375 185.753906 C 143.519531 177.421875 141.089844 168.019531 136.113281 161.148438 C 135.832031 160.753906 135.15625 161.09375 135.378906 161.542969 C 139.5625 169.539062 141.3125 177.363281 143.855469 185.921875 C 143.96875 186.316406 144.648438 186.203125 144.59375 185.753906 Z M 144.59375 185.753906 " fill-opacity="1" fill-rule="nonzero"/><path fill="#5e2d16" d="M 141.652344 175.957031 C 143.96875 180.125 147.191406 183.390625 147.925781 188.34375 C 148.546875 192.566406 147.53125 196.734375 146.570312 200.84375 C 146.457031 201.40625 147.359375 201.742188 147.53125 201.179688 C 150.976562 190.988281 148.886719 183.671875 142.386719 175.449219 C 142.050781 174.941406 141.371094 175.449219 141.652344 175.957031 Z M 141.652344 175.957031 " fill-opacity="1" fill-rule="nonzero"/><path fill="#5e2d16" d="M 147.757812 200.675781 C 144.816406 196.957031 140.976562 193.859375 140.296875 188.851562 C 139.730469 184.570312 141.9375 180.347656 142.898438 176.292969 C 143.007812 175.730469 142.105469 175.394531 141.878906 175.957031 C 140.128906 180.460938 138.035156 185.640625 139.335938 190.484375 C 140.464844 194.707031 143.746094 198.535156 147.191406 201.179688 C 147.472656 201.519531 148.039062 201.066406 147.757812 200.675781 Z M 147.757812 200.675781 " fill-opacity="1" fill-rule="nonzero"/><path fill="#5e2d16" d="M 162.449219 177.421875 C 153.746094 174.042969 145.382812 171.675781 138.828125 164.695312 C 138.320312 164.1875 137.414062 164.976562 137.867188 165.539062 C 143.855469 172.804688 153.296875 175.898438 162.222656 178.039062 C 162.5625 178.097656 162.789062 177.53125 162.449219 177.421875 Z M 162.449219 177.421875 " fill-opacity="1" fill-rule="nonzero"/><path fill="#5e2d16" d="M 150.863281 173.140625 C 150.753906 171.566406 160.925781 171.394531 161.546875 171.453125 C 164.03125 171.789062 166.40625 172.523438 168.667969 173.648438 C 173.242188 175.957031 176.691406 179.558594 180.195312 183.164062 C 180.648438 183.613281 181.382812 182.9375 181.042969 182.429688 C 174.089844 173.421875 161.488281 165.992188 150.414062 172.296875 C 150.242188 172.410156 150.1875 172.632812 150.1875 172.804688 C 150.1875 172.917969 150.1875 173.027344 150.242188 173.140625 C 150.242188 173.367188 150.527344 173.535156 150.695312 173.421875 C 150.753906 173.421875 150.753906 173.367188 150.808594 173.367188 C 150.808594 173.308594 150.863281 173.253906 150.863281 173.140625 Z M 150.863281 173.140625 " fill-opacity="1" fill-rule="nonzero"/><path fill="#5e2d16" d="M 180.648438 182.09375 C 174.542969 182.488281 168.554688 183.558594 162.621094 181.585938 C 157.308594 179.785156 154.652344 175.5625 150.640625 172.128906 C 149.960938 171.566406 149.054688 172.578125 149.734375 173.199219 C 154.03125 176.96875 156.460938 181.136719 162.167969 182.996094 C 168.101562 184.910156 174.769531 184.175781 180.703125 182.9375 C 181.15625 182.769531 181.15625 182.039062 180.648438 182.09375 Z M 180.648438 182.09375 " fill-opacity="1" fill-rule="nonzero"/><path fill="#5e2d16" d="M 162.28125 203.65625 C 157.589844 190.484375 148.886719 177.984375 139.5625 167.625 C 139.054688 167.0625 138.148438 167.679688 138.601562 168.300781 C 146.738281 180.179688 155.667969 190.652344 161.488281 203.996094 C 161.714844 204.390625 162.449219 204.164062 162.28125 203.65625 Z M 162.28125 203.65625 " fill-opacity="1" fill-rule="nonzero"/><path fill="#5e2d16" d="M 158.097656 194.875 C 162.335938 197.351562 165.613281 200.617188 167.535156 205.179688 C 169.457031 209.851562 169.0625 214.582031 169.742188 219.421875 C 169.796875 219.761719 170.304688 219.816406 170.363281 219.480469 C 172.566406 210.246094 167.933594 197.578125 158.382812 194.3125 C 157.984375 194.144531 157.703125 194.648438 158.097656 194.875 Z M 158.097656 194.875 " fill-opacity="1" fill-rule="nonzero"/><path fill="#5e2d16" d="M 170.136719 219.140625 C 161.039062 214.242188 155.386719 202.699219 157.421875 192.511719 C 157.589844 191.664062 156.347656 191.441406 156.121094 192.285156 C 153.464844 202.082031 159.851562 216.4375 169.683594 220.097656 C 170.304688 220.324219 170.699219 219.480469 170.136719 219.140625 Z M 170.136719 219.140625 " fill-opacity="1" fill-rule="nonzero"/><path fill="#5e2d16" d="M 188.277344 191.945312 C 182.457031 192.902344 177.085938 194.425781 171.097656 193.242188 C 165.898438 192.226562 160.699219 190.425781 156.121094 187.78125 C 155.839844 187.613281 155.613281 188.003906 155.839844 188.230469 C 163.976562 196.058594 178.441406 196.167969 188.445312 192.734375 C 188.898438 192.566406 188.785156 191.835938 188.277344 191.945312 Z M 188.277344 191.945312 " fill-opacity="1" fill-rule="nonzero"/><path fill="#5e2d16" d="M 169.628906 193.355469 C 177.59375 186.035156 188.050781 190.03125 197.601562 190.484375 C 198.109375 190.484375 198.109375 189.695312 197.65625 189.582031 C 188.898438 187.554688 175.449219 184.457031 169.0625 192.847656 C 168.78125 193.242188 169.289062 193.691406 169.628906 193.355469 Z M 169.628906 193.355469 " fill-opacity="1" fill-rule="nonzero"/><path fill="#5e2d16" d="M 197.601562 189.46875 C 193.136719 192.285156 189.578125 195.664062 184.09375 196.28125 C 179.066406 196.902344 174.316406 195.605469 170.078125 192.960938 C 169.289062 192.511719 168.722656 193.75 169.457031 194.199219 C 178.78125 200.167969 190.875 198.421875 198.109375 189.976562 C 198.335938 189.695312 197.941406 189.246094 197.601562 189.46875 Z M 197.601562 189.46875 " fill-opacity="1" fill-rule="nonzero"/><path fill="#5e2d16" d="M 192.683594 213.398438 C 187.769531 206.8125 180.761719 200.335938 172.566406 198.253906 C 171.945312 198.082031 171.71875 198.984375 172.226562 199.265625 C 175.898438 201.292969 179.574219 202.871094 182.964844 205.402344 C 186.242188 207.878906 189.351562 210.753906 191.949219 213.960938 C 192.289062 214.355469 193.023438 213.847656 192.683594 213.398438 Z M 192.683594 213.398438 " fill-opacity="1" fill-rule="nonzero"/><g clip-path="url(#9bd770857e)"><path fill="#5e2d16" d="M 183.867188 205.515625 C 189.292969 206.359375 193.644531 207.824219 197.207031 212.273438 C 200.371094 216.269531 202.460938 221.449219 201.839844 226.574219 C 201.726562 227.417969 202.96875 227.644531 203.140625 226.796875 C 204.777344 216.832031 195 202.8125 183.925781 204.726562 C 183.472656 204.785156 183.417969 205.460938 183.867188 205.515625 Z M 183.867188 205.515625 " fill-opacity="1" fill-rule="nonzero"/></g><g clip-path="url(#a540ced232)"><path fill="#5e2d16" d="M 202.519531 226.066406 C 194.71875 225.449219 190.707031 220.886719 188.839844 213.625 C 187.769531 209.511719 186.636719 205.628906 182.457031 203.714844 C 181.664062 203.375 181.097656 204.503906 181.890625 204.898438 C 188.503906 208.445312 186.636719 217.285156 191.273438 222.40625 C 194.097656 225.558594 198.222656 227.304688 202.460938 227.136719 C 203.082031 227.136719 203.140625 226.125 202.519531 226.066406 Z M 202.519531 226.066406 " fill-opacity="1" fill-rule="nonzero"/></g><path fill="#5e2d16" d="M 209.636719 187.441406 C 207.71875 190.089844 205.851562 192.734375 203.929688 195.382812 C 201.78125 198.421875 199.636719 200.167969 196.074219 201.292969 C 195.625 201.460938 195.625 202.25 196.132812 202.308594 C 203.082031 202.8125 207.207031 192.511719 210.089844 187.78125 C 210.316406 187.5 209.863281 187.160156 209.636719 187.441406 Z M 209.636719 187.441406 " fill-opacity="1" fill-rule="nonzero"/><path fill="#5e2d16" d="M 204.382812 197.464844 C 213.988281 195.886719 221.902344 184.910156 217.4375 175.394531 C 217.265625 175 216.589844 175.054688 216.644531 175.5625 C 217.324219 180.234375 217.605469 184.570312 215.0625 188.851562 C 212.632812 192.902344 208.675781 195.210938 204.214844 196.394531 C 203.535156 196.5625 203.761719 197.578125 204.382812 197.464844 Z M 204.382812 197.464844 " fill-opacity="1" fill-rule="nonzero"/><path fill="#5e2d16" d="M 216.757812 175.335938 C 212.292969 176.238281 208.566406 177.984375 206.246094 181.980469 C 203.082031 187.5 203.140625 193.804688 200.425781 199.433594 C 200.144531 200 200.933594 200.5625 201.386719 200.054688 C 204.101562 196.789062 203.988281 192.117188 205.171875 188.230469 C 206.191406 184.910156 207.605469 181.363281 210.429688 179.277344 C 212.40625 177.816406 214.835938 177.25 216.929688 175.957031 C 217.265625 175.789062 217.097656 175.226562 216.757812 175.335938 Z M 216.757812 175.335938 " fill-opacity="1" fill-rule="nonzero"/><path fill="#5e2d16" d="M 213.539062 208.273438 C 208.566406 204.164062 198.789062 200.785156 192.402344 202.417969 C 192.121094 202.476562 192.175781 202.925781 192.457031 202.980469 C 199.464844 204.050781 207.039062 205.007812 213.199219 208.78125 C 213.480469 208.949219 213.765625 208.5 213.539062 208.273438 Z M 213.539062 208.273438 " fill-opacity="1" fill-rule="nonzero"/><path fill="#5e2d16" d="M 203.703125 204.050781 C 207.941406 204.222656 213.988281 204.164062 217.664062 206.699219 C 221.449219 209.289062 223.257812 213.792969 224.671875 217.960938 C 224.839844 218.464844 225.746094 218.296875 225.632812 217.734375 C 224.839844 213.285156 222.128906 208.273438 218.339844 205.683594 C 214.613281 203.152344 207.886719 202.476562 203.589844 203.433594 C 203.195312 203.546875 203.421875 204.050781 203.703125 204.050781 Z M 203.703125 204.050781 " fill-opacity="1" fill-rule="nonzero"/><path fill="#5e2d16" d="M 225.121094 217.621094 C 221.617188 217.339844 218.285156 217.339844 215.007812 215.875 C 211.957031 214.46875 210.484375 212.214844 208.789062 209.457031 C 206.757812 206.078125 204.382812 203.601562 200.257812 203.375 C 199.75 203.375 199.75 204.109375 200.199219 204.222656 C 207.09375 206.136719 207.09375 212.496094 212.40625 216.042969 C 215.96875 218.410156 221.054688 219.308594 225.179688 218.242188 C 225.460938 218.128906 225.40625 217.621094 225.121094 217.621094 Z M 225.121094 217.621094 " fill-opacity="1" fill-rule="nonzero"/><path fill="#5e2d16" d="M 232.921875 199.324219 C 229.871094 197.296875 225.96875 196.394531 222.410156 195.664062 C 219.585938 195.101562 216.644531 194.59375 214.101562 196.28125 C 213.652344 196.5625 214.046875 197.351562 214.554688 197.125 C 220.769531 194.707031 226.648438 198.703125 232.640625 199.941406 C 232.976562 200.054688 233.261719 199.546875 232.921875 199.324219 Z M 232.921875 199.324219 " fill-opacity="1" fill-rule="nonzero"/><path fill="#5e2d16" d="M 225.40625 196.789062 C 233.429688 194.988281 239.363281 198.929688 243.375 205.628906 C 243.773438 206.304688 244.847656 205.574219 244.394531 204.898438 C 240.382812 198.308594 233.089844 192.566406 225.121094 196.113281 C 224.785156 196.339844 225.007812 196.902344 225.40625 196.789062 Z M 225.40625 196.789062 " fill-opacity="1" fill-rule="nonzero"/><path fill="#5e2d16" d="M 243.886719 205.179688 C 241.792969 205.683594 238.96875 204.953125 236.878906 204.671875 C 233.542969 204.164062 230.378906 203.65625 227.949219 201.125 C 226.027344 199.097656 225.6875 196.113281 222.523438 195.945312 C 222.015625 195.886719 221.730469 196.5625 222.242188 196.84375 C 224.671875 197.914062 225.179688 200.222656 226.875 202.023438 C 228.175781 203.375 229.699219 204.332031 231.507812 204.953125 C 234.050781 205.796875 236.992188 206.078125 239.648438 206.246094 C 241.058594 206.359375 243.09375 206.867188 244.28125 205.910156 C 244.621094 205.574219 244.335938 205.066406 243.886719 205.179688 Z M 243.886719 205.179688 " fill-opacity="1" fill-rule="nonzero"/><path fill="#5e2d16" d="M 227.269531 166.441406 C 233.488281 173.480469 233.710938 180.742188 228.570312 188.511719 C 228.175781 189.074219 228.964844 189.808594 229.417969 189.246094 C 232.1875 185.527344 233.882812 182.261719 233.65625 177.421875 C 233.429688 172.972656 231.453125 168.636719 228.003906 165.765625 C 227.609375 165.371094 226.875 165.992188 227.269531 166.441406 Z M 227.269531 166.441406 " fill-opacity="1" fill-rule="nonzero"/><path fill="#5e2d16" d="M 233.601562 179.617188 C 236.03125 174.4375 236.820312 170.101562 234.050781 164.753906 C 231.054688 159.007812 224.445312 159.460938 219.8125 155.742188 C 219.472656 155.460938 218.90625 155.914062 219.1875 156.308594 C 221.617188 159.796875 224.5 159.574219 228.117188 161.148438 C 232.015625 162.839844 234.222656 166.722656 234.558594 170.945312 C 234.785156 173.875 233.601562 176.574219 232.695312 179.335938 C 232.527344 179.785156 233.375 180.066406 233.601562 179.617188 Z M 233.601562 179.617188 " fill-opacity="1" fill-rule="nonzero"/><path fill="#5e2d16" d="M 219.132812 156.082031 C 222.917969 159.910156 221.84375 166.328125 223.992188 171 C 226.421875 176.292969 232.414062 179.277344 230.378906 186.089844 C 230.207031 186.710938 231.113281 186.9375 231.394531 186.429688 C 232.414062 184.457031 232.414062 182.9375 231.90625 180.796875 C 230.773438 175.789062 227.441406 175.054688 225.292969 170.550781 C 223.144531 166.046875 224.953125 157.714844 219.472656 155.6875 C 219.132812 155.519531 218.90625 155.855469 219.132812 156.082031 Z M 219.132812 156.082031 " fill-opacity="1" fill-rule="nonzero"/><path fill="#5e2d16" d="M 247.898438 178.773438 C 245.128906 178.207031 242.472656 178.714844 239.757812 179.390625 C 237.839844 179.839844 235.746094 180.515625 234.898438 182.488281 C 234.730469 182.9375 235.238281 183.277344 235.578125 182.9375 C 238.574219 180.066406 243.828125 179.390625 247.839844 179.558594 C 248.292969 179.503906 248.292969 178.828125 247.898438 178.773438 Z M 247.898438 178.773438 " fill-opacity="1" fill-rule="nonzero"/><g clip-path="url(#2f0bc37a0a)"><path fill="#5e2d16" d="M 239.757812 180.179688 C 244.109375 177.082031 248.800781 176.292969 253.945312 177.703125 C 257.164062 178.601562 259.992188 179.953125 263.4375 179.898438 C 263.890625 179.898438 263.945312 179.109375 263.496094 179.054688 C 258.636719 178.714844 254.339844 175.84375 249.421875 175.617188 C 245.46875 175.449219 241.90625 176.6875 239.023438 179.335938 C 238.574219 179.839844 239.25 180.574219 239.757812 180.179688 Z M 239.757812 180.179688 " fill-opacity="1" fill-rule="nonzero"/></g><g clip-path="url(#b49e6339de)"><path fill="#5e2d16" d="M 263.382812 179.109375 C 259.59375 180.011719 255.980469 181.585938 252.078125 182.148438 C 248.066406 182.714844 244.957031 181.867188 241.171875 180.96875 C 238.574219 180.347656 235.972656 179.953125 234.449219 182.429688 C 234.050781 183.050781 235.011719 183.613281 235.464844 183.105469 C 237.5 180.6875 241.792969 182.824219 244.109375 183.390625 C 246.429688 183.953125 248.800781 184.007812 251.175781 183.78125 C 255.527344 183.332031 259.765625 181.867188 263.609375 179.785156 C 264.058594 179.503906 263.722656 179.054688 263.382812 179.109375 Z M 263.382812 179.109375 " fill-opacity="1" fill-rule="nonzero"/></g><path fill="#5e2d16" d="M 238.742188 174.4375 C 243.207031 175.28125 246.484375 171.847656 247.332031 167.625 C 247.898438 164.695312 247.277344 161.824219 246.652344 158.953125 C 245.410156 153.097656 244.675781 148.648438 246.371094 142.738281 C 246.542969 142.230469 245.75 142.003906 245.523438 142.457031 C 243.660156 146.398438 243.433594 150.449219 244.222656 154.730469 C 244.621094 156.925781 245.296875 159.007812 245.695312 161.207031 C 246.710938 166.328125 245.410156 173.421875 238.742188 173.59375 C 238.289062 173.535156 238.234375 174.324219 238.742188 174.4375 Z M 238.742188 174.4375 " fill-opacity="1" fill-rule="nonzero"/><path fill="#5e2d16" d="M 245.523438 142.0625 C 240.832031 144.371094 238.910156 149.269531 237.5 154 C 236.539062 157.09375 235.859375 160.078125 236.253906 163.34375 C 236.765625 167.0625 239.136719 171.394531 237.726562 175.226562 C 237.441406 176.011719 238.574219 176.574219 238.910156 175.789062 C 240.550781 172.410156 238.628906 168.300781 238.007812 164.808594 C 236.652344 156.871094 239.757812 148.085938 245.804688 142.679688 C 246.144531 142.457031 245.917969 141.835938 245.523438 142.0625 Z M 245.523438 142.0625 " fill-opacity="1" fill-rule="nonzero"/><path fill="#d39f75" d="M 213.875 157.882812 C 211.390625 159.742188 208.621094 161.261719 205.683594 162.445312 L 176.859375 162.445312 C 173.921875 161.261719 171.210938 159.683594 168.667969 157.882812 Z M 213.875 157.882812 " fill-opacity="1" fill-rule="nonzero"/><path fill="#d39f75" d="M 219.921875 152.308594 C 218.566406 153.828125 217.097656 155.238281 215.515625 156.53125 L 167.027344 156.53125 C 165.445312 155.238281 163.976562 153.828125 162.621094 152.308594 Z M 219.921875 152.308594 " fill-opacity="1" fill-rule="nonzero"/><path fill="#d39f75" d="M 223.992188 146.792969 C 223.144531 148.144531 222.242188 149.492188 221.28125 150.734375 L 161.261719 150.734375 C 160.300781 149.492188 159.34375 148.199219 158.550781 146.792969 Z M 223.992188 146.792969 " fill-opacity="1" fill-rule="nonzero"/><path fill="#d39f75" d="M 226.707031 141.273438 C 226.195312 142.511719 225.632812 143.695312 225.066406 144.878906 L 157.476562 144.878906 C 156.855469 143.695312 156.289062 142.511719 155.839844 141.273438 Z M 226.707031 141.273438 " fill-opacity="1" fill-rule="nonzero"/><path fill="#d39f75" d="M 228.457031 135.699219 C 228.230469 136.824219 227.890625 137.894531 227.554688 138.964844 L 154.992188 138.964844 C 154.652344 137.894531 154.3125 136.824219 154.085938 135.699219 Z M 228.457031 135.699219 " fill-opacity="1" fill-rule="nonzero"/><g clip-path="url(#df93ab28ce)"><path fill="#d39f75" d="M 229.359375 127.253906 C 229.359375 129.226562 229.191406 131.195312 228.910156 133.109375 L 153.578125 133.109375 C 153.296875 131.195312 153.125 129.226562 153.125 127.253906 C 153.125 106.308594 170.191406 89.304688 191.273438 89.304688 C 212.292969 89.304688 229.359375 106.308594 229.359375 127.253906 Z M 229.359375 127.253906 " fill-opacity="1" fill-rule="nonzero"/></g><g fill="#020202" fill-opacity="1"><g transform="translate(40.981854, 260.789428)"><g><path d="M 2.96875 0 L 2.96875 -21.828125 L 16.1875 -21.828125 L 15.859375 -19.609375 L 9.71875 -20.640625 C 8.644531 -20.640625 7.460938 -20.453125 6.171875 -20.078125 L 6.171875 -12.0625 L 13.484375 -12.0625 L 13.484375 -10.8125 L 6.171875 -10.8125 L 6.171875 -1.1875 L 16.390625 -2.203125 L 16.0625 0 Z M 2.96875 0 "/></g></g></g><g fill="#020202" fill-opacity="1"><g transform="translate(59.502592, 260.789428)"><g><path d="M 5.34375 -18.03125 C 5.34375 -17.0625 5.71875 -16.164062 6.46875 -15.34375 C 7.226562 -14.519531 8.148438 -13.796875 9.234375 -13.171875 C 10.328125 -12.546875 11.410156 -11.90625 12.484375 -11.25 C 13.566406 -10.601562 14.488281 -9.804688 15.25 -8.859375 C 16.007812 -7.921875 16.390625 -6.878906 16.390625 -5.734375 C 16.390625 -3.929688 15.722656 -2.457031 14.390625 -1.3125 C 13.054688 -0.175781 11.257812 0.390625 9 0.390625 C 6.738281 0.390625 4.5 -0.0351562 2.28125 -0.890625 L 2.28125 -2.4375 C 4.519531 -1.320312 6.425781 -0.765625 8 -0.765625 C 9.570312 -0.765625 10.796875 -1.144531 11.671875 -1.90625 C 12.546875 -2.675781 12.984375 -3.742188 12.984375 -5.109375 C 12.984375 -6.035156 12.617188 -6.875 11.890625 -7.625 C 11.171875 -8.382812 10.296875 -9.046875 9.265625 -9.609375 C 8.234375 -10.171875 7.195312 -10.75 6.15625 -11.34375 C 5.125 -11.9375 4.242188 -12.6875 3.515625 -13.59375 C 2.796875 -14.507812 2.4375 -15.613281 2.4375 -16.90625 C 2.4375 -18.207031 3.015625 -19.414062 4.171875 -20.53125 C 5.328125 -21.65625 7.046875 -22.21875 9.328125 -22.21875 C 10.828125 -22.21875 12.71875 -21.878906 15 -21.203125 L 14.671875 -18.953125 C 11.703125 -20.234375 9.164062 -20.875 7.0625 -20.875 C 5.914062 -20.320312 5.34375 -19.375 5.34375 -18.03125 Z M 5.34375 -18.03125 "/></g></g></g><g fill="#020202" fill-opacity="1"><g transform="translate(77.825592, 260.789428)"><g><path d="M 17.640625 -16.15625 C 17.640625 -14.039062 16.863281 -12.4375 15.3125 -11.34375 C 13.757812 -10.257812 11.65625 -9.71875 9 -9.71875 L 6.171875 -9.71875 L 6.171875 0 L 2.96875 0 L 2.96875 -21.828125 L 10.0625 -21.828125 C 12.28125 -21.828125 14.097656 -21.320312 15.515625 -20.3125 C 16.929688 -19.300781 17.640625 -17.914062 17.640625 -16.15625 Z M 6.171875 -10.6875 L 9.09375 -10.6875 C 10.132812 -10.6875 11.019531 -10.882812 11.75 -11.28125 C 12.488281 -11.675781 13.023438 -12.179688 13.359375 -12.796875 C 13.953125 -13.890625 14.25 -14.953125 14.25 -15.984375 C 14.25 -16.492188 14.113281 -17.097656 13.84375 -17.796875 C 13.320312 -19.253906 12.234375 -20.203125 10.578125 -20.640625 C 8.992188 -20.640625 7.523438 -20.453125 6.171875 -20.078125 Z M 6.171875 -10.6875 "/></g></g></g><g fill="#020202" fill-opacity="1"><g transform="translate(95.819045, 260.789428)"><g><path d="M 0.328125 0 L 10.125 -22.359375 L 10.609375 -22.359375 L 20.40625 0 L 16.8125 0 L 14.34375 -5.9375 L 4.546875 -5.9375 L 2.109375 0 Z M 5.046875 -7.1875 L 13.8125 -7.1875 L 9.46875 -17.875 Z M 5.046875 -7.1875 "/></g></g></g><g fill="#020202" fill-opacity="1"><g transform="translate(116.547771, 260.789428)"><g><path d="M 13.015625 0.390625 C 9.609375 0.390625 6.738281 -0.53125 4.40625 -2.375 C 2.082031 -4.21875 0.921875 -6.863281 0.921875 -10.3125 C 0.921875 -12.34375 1.304688 -14.144531 2.078125 -15.71875 C 2.847656 -17.300781 3.859375 -18.546875 5.109375 -19.453125 C 7.640625 -21.296875 10.472656 -22.21875 13.609375 -22.21875 C 15.441406 -22.21875 17.34375 -21.890625 19.3125 -21.234375 L 18.984375 -18.984375 C 17.953125 -19.429688 17.148438 -19.765625 16.578125 -19.984375 C 14.929688 -20.578125 13.273438 -20.875 11.609375 -20.875 C 9.296875 -20.34375 7.519531 -19.195312 6.28125 -17.4375 C 5.039062 -15.675781 4.421875 -13.476562 4.421875 -10.84375 C 4.421875 -7.613281 5.265625 -5.125 6.953125 -3.375 C 8.648438 -1.632812 10.878906 -0.765625 13.640625 -0.765625 C 16.410156 -0.765625 18.476562 -1.351562 19.84375 -2.53125 L 19.84375 -0.71875 C 17.957031 0.0195312 15.679688 0.390625 13.015625 0.390625 Z M 13.015625 0.390625 "/></g></g></g><g fill="#020202" fill-opacity="1"><g transform="translate(137.375361, 260.789428)"><g><path d="M 6 -21.828125 L 6 0 L 2.96875 0 L 2.96875 -21.828125 Z M 6 -21.828125 "/></g></g></g><g fill="#020202" fill-opacity="1"><g transform="translate(146.339138, 260.789428)"><g><path d="M 12.890625 -22.21875 C 15.742188 -22.21875 18.101562 -21.273438 19.96875 -19.390625 C 21.84375 -17.515625 22.78125 -14.910156 22.78125 -11.578125 C 22.78125 -9.421875 22.40625 -7.535156 21.65625 -5.921875 C 20.914062 -4.304688 19.9375 -3.054688 18.71875 -2.171875 C 16.375 -0.460938 13.78125 0.390625 10.9375 0.390625 C 8.101562 0.390625 5.757812 -0.554688 3.90625 -2.453125 C 2.050781 -4.359375 1.125 -6.976562 1.125 -10.3125 C 1.125 -12.050781 1.367188 -13.617188 1.859375 -15.015625 C 2.359375 -16.410156 3.007812 -17.546875 3.8125 -18.421875 C 4.613281 -19.304688 5.539062 -20.046875 6.59375 -20.640625 C 8.53125 -21.691406 10.628906 -22.21875 12.890625 -22.21875 Z M 6.265625 -3.765625 C 6.835938 -2.796875 7.601562 -2.039062 8.5625 -1.5 C 9.53125 -0.957031 10.644531 -0.6875 11.90625 -0.6875 C 13.175781 -0.6875 14.304688 -1.003906 15.296875 -1.640625 C 16.285156 -2.285156 17.054688 -3.125 17.609375 -4.15625 C 18.722656 -6.21875 19.28125 -8.4375 19.28125 -10.8125 C 19.28125 -13.738281 18.703125 -16.09375 17.546875 -17.875 C 16.242188 -19.875 14.097656 -20.875 11.109375 -20.875 C 8.972656 -20.125 7.351562 -18.835938 6.25 -17.015625 C 5.15625 -15.191406 4.609375 -13.125 4.609375 -10.8125 C 4.609375 -8 5.160156 -5.648438 6.265625 -3.765625 Z M 6.265625 -3.765625 "/></g></g></g><g fill="#020202" fill-opacity="1"><g transform="translate(170.231548, 260.789428)"><g/></g></g><g fill="#020202" fill-opacity="1"><g transform="translate(178.470311, 260.789428)"><g><path d="M 5.34375 -18.03125 C 5.34375 -17.0625 5.71875 -16.164062 6.46875 -15.34375 C 7.226562 -14.519531 8.148438 -13.796875 9.234375 -13.171875 C 10.328125 -12.546875 11.410156 -11.90625 12.484375 -11.25 C 13.566406 -10.601562 14.488281 -9.804688 15.25 -8.859375 C 16.007812 -7.921875 16.390625 -6.878906 16.390625 -5.734375 C 16.390625 -3.929688 15.722656 -2.457031 14.390625 -1.3125 C 13.054688 -0.175781 11.257812 0.390625 9 0.390625 C 6.738281 0.390625 4.5 -0.0351562 2.28125 -0.890625 L 2.28125 -2.4375 C 4.519531 -1.320312 6.425781 -0.765625 8 -0.765625 C 9.570312 -0.765625 10.796875 -1.144531 11.671875 -1.90625 C 12.546875 -2.675781 12.984375 -3.742188 12.984375 -5.109375 C 12.984375 -6.035156 12.617188 -6.875 11.890625 -7.625 C 11.171875 -8.382812 10.296875 -9.046875 9.265625 -9.609375 C 8.234375 -10.171875 7.195312 -10.75 6.15625 -11.34375 C 5.125 -11.9375 4.242188 -12.6875 3.515625 -13.59375 C 2.796875 -14.507812 2.4375 -15.613281 2.4375 -16.90625 C 2.4375 -18.207031 3.015625 -19.414062 4.171875 -20.53125 C 5.328125 -21.65625 7.046875 -22.21875 9.328125 -22.21875 C 10.828125 -22.21875 12.71875 -21.878906 15 -21.203125 L 14.671875 -18.953125 C 11.703125 -20.234375 9.164062 -20.875 7.0625 -20.875 C 5.914062 -20.320312 5.34375 -19.375 5.34375 -18.03125 Z M 5.34375 -18.03125 "/></g></g></g><g fill="#020202" fill-opacity="1"><g transform="translate(196.79331, 260.789428)"><g><path d="M 6 -21.828125 L 6 0 L 2.96875 0 L 2.96875 -21.828125 Z M 6 -21.828125 "/></g></g></g><g fill="#020202" fill-opacity="1"><g transform="translate(205.757087, 260.789428)"><g><path d="M 2.96875 0 L 2.96875 -21.828125 L 6.203125 -21.828125 L 6.203125 -1.78125 C 7.535156 -1.382812 8.609375 -1.1875 9.421875 -1.1875 L 15.390625 -2.203125 L 15 0 Z M 2.96875 0 "/></g></g></g><g fill="#020202" fill-opacity="1"><g transform="translate(221.80618, 260.789428)"><g><path d="M 10.125 0.53125 L 0.328125 -21.828125 L 3.921875 -21.828125 L 11.171875 -3.953125 L 17.703125 -21.828125 L 19.359375 -21.828125 L 10.65625 0.53125 Z M 10.125 0.53125 "/></g></g></g><g fill="#020202" fill-opacity="1"><g transform="translate(241.480355, 260.789428)"><g><path d="M 2.96875 0 L 2.96875 -21.828125 L 16.1875 -21.828125 L 15.859375 -19.609375 L 9.71875 -20.640625 C 8.644531 -20.640625 7.460938 -20.453125 6.171875 -20.078125 L 6.171875 -12.0625 L 13.484375 -12.0625 L 13.484375 -10.8125 L 6.171875 -10.8125 L 6.171875 -1.1875 L 16.390625 -2.203125 L 16.0625 0 Z M 2.96875 0 "/></g></g></g><g fill="#020202" fill-opacity="1"><g transform="translate(260.001094, 260.789428)"><g><path d="M 5.34375 -18.03125 C 5.34375 -17.0625 5.71875 -16.164062 6.46875 -15.34375 C 7.226562 -14.519531 8.148438 -13.796875 9.234375 -13.171875 C 10.328125 -12.546875 11.410156 -11.90625 12.484375 -11.25 C 13.566406 -10.601562 14.488281 -9.804688 15.25 -8.859375 C 16.007812 -7.921875 16.390625 -6.878906 16.390625 -5.734375 C 16.390625 -3.929688 15.722656 -2.457031 14.390625 -1.3125 C 13.054688 -0.175781 11.257812 0.390625 9 0.390625 C 6.738281 0.390625 4.5 -0.0351562 2.28125 -0.890625 L 2.28125 -2.4375 C 4.519531 -1.320312 6.425781 -0.765625 8 -0.765625 C 9.570312 -0.765625 10.796875 -1.144531 11.671875 -1.90625 C 12.546875 -2.675781 12.984375 -3.742188 12.984375 -5.109375 C 12.984375 -6.035156 12.617188 -6.875 11.890625 -7.625 C 11.171875 -8.382812 10.296875 -9.046875 9.265625 -9.609375 C 8.234375 -10.171875 7.195312 -10.75 6.15625 -11.34375 C 5.125 -11.9375 4.242188 -12.6875 3.515625 -13.59375 C 2.796875 -14.507812 2.4375 -15.613281 2.4375 -16.90625 C 2.4375 -18.207031 3.015625 -19.414062 4.171875 -20.53125 C 5.328125 -21.65625 7.046875 -22.21875 9.328125 -22.21875 C 10.828125 -22.21875 12.71875 -21.878906 15 -21.203125 L 14.671875 -18.953125 C 11.703125 -20.234375 9.164062 -20.875 7.0625 -20.875 C 5.914062 -20.320312 5.34375 -19.375 5.34375 -18.03125 Z M 5.34375 -18.03125 "/></g></g></g><g fill="#020202" fill-opacity="1"><g transform="translate(278.324105, 260.789428)"><g><path d="M 10.421875 0 L 7.21875 0 L 7.21875 -20.25 C 6.46875 -20.414062 5.722656 -20.5 4.984375 -20.5 L 0.53125 -19.484375 L 0.328125 -21.828125 L 17.3125 -21.828125 L 17.140625 -19.484375 L 12.65625 -20.5 C 11.914062 -20.5 11.171875 -20.414062 10.421875 -20.25 Z M 10.421875 0 "/></g></g></g><g fill="#020202" fill-opacity="1"><g transform="translate(295.955046, 260.789428)"><g><path d="M 6.203125 -10.421875 L 6.203125 0 L 2.96875 0 L 2.96875 -21.828125 L 10.09375 -21.828125 C 12.3125 -21.828125 14.128906 -21.332031 15.546875 -20.34375 C 16.960938 -19.351562 17.671875 -18.050781 17.671875 -16.4375 C 17.671875 -14.820312 17.101562 -13.546875 15.96875 -12.609375 C 14.84375 -11.671875 13.3125 -11.03125 11.375 -10.6875 L 20.203125 0 L 16.390625 0.46875 L 8.734375 -10.421875 Z M 6.203125 -11.40625 L 8.3125 -11.40625 C 12.269531 -11.40625 14.25 -12.96875 14.25 -16.09375 C 14.25 -16.613281 14.113281 -17.207031 13.84375 -17.875 C 13.34375 -19.257812 12.265625 -20.171875 10.609375 -20.609375 C 9.117188 -20.609375 7.648438 -20.421875 6.203125 -20.046875 Z M 6.203125 -11.40625 "/></g></g></g><g fill="#020202" fill-opacity="1"><g transform="translate(316.980364, 260.789428)"><g><path d="M 2.96875 0 L 2.96875 -21.828125 L 16.1875 -21.828125 L 15.859375 -19.609375 L 9.71875 -20.640625 C 8.644531 -20.640625 7.460938 -20.453125 6.171875 -20.078125 L 6.171875 -12.0625 L 13.484375 -12.0625 L 13.484375 -10.8125 L 6.171875 -10.8125 L 6.171875 -1.1875 L 16.390625 -2.203125 L 16.0625 0 Z M 2.96875 0 "/></g></g></g><path stroke-linecap="butt" transform="matrix(0.75, 0, 0, 0.75, 41.566967, 270.056848)" fill="none" stroke-linejoin="miter" d="M 9.608627 13.096079 C 8.520086 13.096079 7.540919 12.856495 6.665919 12.377329 C 5.790919 11.892954 5.103419 11.226287 4.608627 10.37212 C 4.108627 9.517953 3.863835 8.55962 3.863835 7.502328 C 3.863835 6.450245 4.108627 5.491912 4.608627 4.637745 C 5.103419 3.788786 5.796127 3.12212 6.671127 2.637745 C 7.551336 2.158578 8.535711 1.913786 9.624252 1.913786 C 10.441961 1.913786 11.197169 2.049203 11.884669 2.325245 C 12.577378 2.596078 13.160711 2.991911 13.645086 3.517953 L 12.905503 4.257536 C 12.046128 3.387745 10.962794 2.955453 9.655502 2.955453 C 8.785711 2.955453 7.994044 3.15337 7.280502 3.549203 C 6.572169 3.950245 6.014877 4.491911 5.608627 5.18462 C 5.207586 5.87212 5.009669 6.648162 5.009669 7.502328 C 5.009669 8.361703 5.207586 9.137745 5.608627 9.830453 C 6.014877 10.517954 6.572169 11.064829 7.280502 11.460662 C 7.994044 11.856495 8.785711 12.05962 9.655502 12.05962 C 10.978419 12.05962 12.061753 11.616912 12.905503 10.736704 L 13.645086 11.476287 C 13.160711 11.99712 12.572169 12.398162 11.879461 12.679412 C 11.181544 12.955454 10.426336 13.096079 9.608627 13.096079 Z M 29.85342 10.064829 L 23.733628 10.064829 L 22.410712 13.002329 L 21.202378 13.002329 L 26.22842 2.012745 L 27.374254 2.012745 L 32.400296 13.002329 L 31.171129 13.002329 Z M 29.426337 9.12212 L 26.79092 3.21587 L 24.155503 9.12212 Z M 47.978422 7.330453 C 48.70238 7.491912 49.259672 7.799203 49.650297 8.267953 C 50.040922 8.731495 50.238838 9.330453 50.238838 10.064829 C 50.238838 11.007537 49.88988 11.731495 49.191963 12.241912 C 48.499255 12.74712 47.468005 13.002329 46.10863 13.002329 L 41.056546 13.002329 L 41.056546 2.012745 L 45.79613 2.012745 C 47.020088 2.012745 47.968005 2.257536 48.645088 2.752328 C 49.322172 3.241911 49.660713 3.93462 49.660713 4.835661 C 49.660713 5.445037 49.509672 5.960662 49.212797 6.382537 C 48.910713 6.804412 48.499255 7.12212 47.978422 7.330453 Z M 42.218005 2.971078 L 42.218005 6.955453 L 45.718005 6.955453 C 46.60863 6.955453 47.290922 6.783578 47.775297 6.445037 C 48.254463 6.106495 48.494047 5.611703 48.494047 4.960662 C 48.494047 4.314828 48.254463 3.820036 47.775297 3.476286 C 47.290922 3.137745 46.60863 2.971078 45.718005 2.971078 Z M 46.093005 12.043995 C 47.07738 12.043995 47.822172 11.87212 48.322172 11.538787 C 48.82738 11.205454 49.07738 10.679412 49.07738 9.96587 C 49.07738 8.596078 48.082588 7.913787 46.093005 7.913787 L 42.218005 7.913787 L 42.218005 12.043995 Z M 66.619048 10.064829 L 60.499256 10.064829 L 59.181547 13.002329 L 57.968006 13.002329 L 62.994048 2.012745 L 64.139881 2.012745 L 69.165923 13.002329 L 67.936756 13.002329 Z M 66.191965 9.12212 L 63.556548 3.21587 L 60.921131 9.12212 Z M 87.004466 2.012745 L 87.004466 13.002329 L 86.046132 13.002329 L 78.983632 4.080453 L 78.983632 13.002329 L 77.822174 13.002329 L 77.822174 2.012745 L 78.780507 2.012745 L 85.858632 10.924204 L 85.858632 2.012745 Z M 83.473216 1.023161 C 83.233632 1.023161 83.020091 0.96587 82.832591 0.856495 C 82.639882 0.74712 82.436757 0.59087 82.218007 0.392953 C 82.030507 0.236703 81.879466 0.12212 81.770091 0.0544112 C 81.660716 -0.0132972 81.540924 -0.0497555 81.415924 -0.0497555 C 81.176341 -0.0497555 80.983632 0.0439945 80.83259 0.221078 C 80.686757 0.398161 80.608632 0.642953 80.598215 0.955453 L 79.92634 0.955453 C 79.947174 0.43462 80.08259 0.0179528 80.33259 -0.294547 C 80.58259 -0.612256 80.921132 -0.768506 81.337799 -0.768506 C 81.582591 -0.768506 81.790924 -0.716422 81.973216 -0.612256 C 82.155507 -0.508089 82.369049 -0.346631 82.608632 -0.138297 C 82.775299 0.00753618 82.921132 0.116911 83.035716 0.189828 C 83.150299 0.262745 83.270091 0.299203 83.395091 0.299203 C 83.624257 0.299203 83.811757 0.210661 83.957591 0.0387862 C 84.108632 -0.133089 84.191966 -0.372672 84.212799 -0.674756 L 84.884674 -0.674756 C 84.863841 -0.164339 84.728424 0.24712 84.478424 0.55962 C 84.228424 0.866911 83.895091 1.023161 83.473216 1.023161 Z M 104.311759 10.064829 L 98.191967 10.064829 L 96.874258 13.002329 L 95.660716 13.002329 L 100.686758 2.012745 L 101.832592 2.012745 L 106.858634 13.002329 L 105.629467 13.002329 Z M 103.884675 9.12212 L 101.249258 3.21587 L 98.613842 9.12212 Z M 118.540926 13.096079 C 117.728426 13.096079 116.947176 12.96587 116.197176 12.705454 C 115.447176 12.439829 114.869051 12.096079 114.462801 11.663787 L 114.915926 10.767954 C 115.311759 11.168995 115.843009 11.491912 116.504468 11.736704 C 117.160718 11.986704 117.84301 12.106495 118.540926 12.106495 C 119.525301 12.106495 120.264885 11.924204 120.759676 11.564829 C 121.24926 11.205454 121.49926 10.736704 121.49926 10.158579 C 121.49926 9.721078 121.363843 9.37212 121.09301 9.111703 C 120.827385 8.846078 120.49926 8.642953 120.113843 8.502328 C 119.728426 8.361703 119.18676 8.205453 118.494051 8.038787 C 117.671135 7.830453 117.009676 7.627328 116.520093 7.43462 C 116.025301 7.241912 115.603426 6.945037 115.254468 6.549203 C 114.900301 6.148162 114.728426 5.611703 114.728426 4.929412 C 114.728426 4.377328 114.874259 3.87212 115.171134 3.418995 C 115.462801 2.960661 115.910718 2.596078 116.520093 2.325245 C 117.12426 2.049203 117.879468 1.913786 118.78051 1.913786 C 119.40551 1.913786 120.020093 2.002328 120.62426 2.174203 C 121.228426 2.346078 121.74926 2.585661 122.18676 2.887745 L 121.790927 3.814828 C 121.332593 3.512745 120.837801 3.283578 120.316968 3.132536 C 119.796135 2.981495 119.28051 2.90337 118.78051 2.90337 C 117.816968 2.90337 117.087801 3.09087 116.603426 3.46587 C 116.119051 3.835661 115.874259 4.30962 115.874259 4.898161 C 115.874259 5.335662 116.004468 5.689828 116.270093 5.960662 C 116.540926 6.226287 116.87426 6.429412 117.275301 6.570037 C 117.681551 6.710662 118.223218 6.866912 118.90551 7.033578 C 119.712801 7.231495 120.358635 7.429412 120.858635 7.62212 C 121.353426 7.814828 121.775302 8.111703 122.12426 8.502328 C 122.46801 8.892953 122.645093 9.424203 122.645093 10.096079 C 122.645093 10.648162 122.494052 11.15337 122.191968 11.611704 C 121.895093 12.064829 121.43676 12.429412 120.816968 12.695037 C 120.202385 12.960662 119.441968 13.096079 118.540926 13.096079 Z M 146.728428 9.200245 L 146.728428 13.002329 L 145.582595 13.002329 L 145.582595 9.200245 L 141.186761 2.012745 L 142.431553 2.012745 L 146.197178 8.179412 L 149.962803 2.012745 L 151.124262 2.012745 Z M 175.494055 13.096079 C 174.405513 13.096079 173.426347 12.856495 172.551347 12.377329 C 171.676346 11.892954 170.994055 11.226287 170.494055 10.37212 C 169.999263 9.517953 169.749263 8.55962 169.749263 7.502328 C 169.749263 6.450245 169.999263 5.491912 170.494055 4.637745 C 170.994055 3.788786 171.681555 3.12212 172.561763 2.637745 C 173.436763 2.158578 174.421138 1.913786 175.50968 1.913786 C 176.327388 1.913786 177.082597 2.049203 177.775305 2.325245 C 178.462805 2.596078 179.051347 2.991911 179.530514 3.517953 L 178.79093 4.257536 C 177.931555 3.387745 176.848222 2.955453 175.54093 2.955453 C 174.671138 2.955453 173.88468 3.15337 173.171138 3.549203 C 172.457596 3.950245 171.900305 4.491911 171.499263 5.18462 C 171.098221 5.87212 170.895096 6.648162 170.895096 7.502328 C 170.895096 8.361703 171.098221 9.137745 171.499263 9.830453 C 171.900305 10.517954 172.457596 11.064829 173.171138 11.460662 C 173.88468 11.856495 174.671138 12.05962 175.54093 12.05962 C 176.863847 12.05962 177.94718 11.616912 178.79093 10.736704 L 179.530514 11.476287 C 179.051347 11.99712 178.462805 12.398162 177.764889 12.679412 C 177.07218 12.955454 176.311763 13.096079 175.494055 13.096079 Z M 195.738848 10.064829 L 189.619056 10.064829 L 188.301348 13.002329 L 187.087806 13.002329 L 192.113848 2.012745 L 193.259681 2.012745 L 198.285723 13.002329 L 197.056556 13.002329 Z M 195.316973 9.12212 L 192.676348 3.21587 L 190.040931 9.12212 Z M 209.968016 13.096079 C 209.155516 13.096079 208.374266 12.96587 207.624265 12.705454 C 206.874265 12.439829 206.29614 12.096079 205.88989 11.663787 L 206.343015 10.767954 C 206.744057 11.168995 207.270099 11.491912 207.931557 11.736704 C 208.587807 11.986704 209.270099 12.106495 209.968016 12.106495 C 210.952391 12.106495 211.691974 11.924204 212.186766 11.564829 C 212.676349 11.205454 212.926349 10.736704 212.926349 10.158579 C 212.926349 9.721078 212.790932 9.37212 212.525307 9.111703 C 212.254474 8.846078 211.931557 8.642953 211.540932 8.502328 C 211.155516 8.361703 210.613849 8.205453 209.926349 8.038787 C 209.098224 7.830453 208.436766 7.627328 207.947182 7.43462 C 207.457599 7.241912 207.035724 6.945037 206.681557 6.549203 C 206.332599 6.148162 206.155515 5.611703 206.155515 4.929412 C 206.155515 4.377328 206.301349 3.87212 206.598224 3.418995 C 206.88989 2.960661 207.343015 2.596078 207.947182 2.325245 C 208.556557 2.049203 209.306557 1.913786 210.207599 1.913786 C 210.837807 1.913786 211.452391 2.002328 212.051349 2.174203 C 212.655516 2.346078 213.176349 2.585661 213.613849 2.887745 L 213.218016 3.814828 C 212.759682 3.512745 212.270099 3.283578 211.744057 3.132536 C 211.223224 2.981495 210.712807 2.90337 210.207599 2.90337 C 209.244057 2.90337 208.520099 3.09087 208.030516 3.46587 C 207.54614 3.835661 207.301349 4.30962 207.301349 4.898161 C 207.301349 5.335662 207.436765 5.689828 207.70239 5.960662 C 207.968015 6.226287 208.301349 6.429412 208.707599 6.570037 C 209.108641 6.710662 209.650307 6.866912 210.332599 7.033578 C 211.139891 7.231495 211.790932 7.429412 212.285724 7.62212 C 212.785724 7.814828 213.207599 8.111703 213.551349 8.502328 C 213.895099 8.892953 214.072183 9.424203 214.072183 10.096079 C 214.072183 10.648162 213.921141 11.15337 213.624266 11.611704 C 213.322183 12.064829 212.863849 12.429412 212.249266 12.695037 C 211.629474 12.960662 210.874266 13.096079 209.968016 13.096079 Z M 230.327392 10.064829 L 224.2076 10.064829 L 222.884683 13.002329 L 221.67635 13.002329 L 226.702392 2.012745 L 227.848225 2.012745 L 232.874267 13.002329 L 231.6451 13.002329 Z M 229.900309 9.12212 L 227.264892 3.21587 L 224.629475 9.12212 Z M 252.483643 2.012745 L 256.957602 2.012745 C 258.11906 2.012745 259.145102 2.241911 260.035727 2.710661 C 260.921144 3.174203 261.613852 3.820036 262.103436 4.65337 C 262.598227 5.486703 262.843019 6.439828 262.843019 7.502328 C 262.843019 8.570037 262.598227 9.523162 262.103436 10.356495 C 261.613852 11.18462 260.921144 11.835662 260.035727 12.304412 C 259.145102 12.767954 258.11906 13.002329 256.957602 13.002329 L 252.483643 13.002329 Z M 256.895102 11.99712 C 257.858644 11.99712 258.702394 11.804412 259.421144 11.424204 C 260.145102 11.038787 260.702394 10.512745 261.098227 9.835662 C 261.499269 9.158578 261.697186 8.382537 261.697186 7.502328 C 261.697186 6.62212 261.499269 5.846078 261.098227 5.174203 C 260.702394 4.49712 260.145102 3.971078 259.421144 3.59087 C 258.702394 3.205453 257.858644 3.012745 256.895102 3.012745 L 253.645102 3.012745 L 253.645102 11.99712 Z M 280.056562 11.99712 L 280.056562 13.002329 L 272.285728 13.002329 L 272.285728 2.012745 L 279.822187 2.012745 L 279.822187 3.012745 L 273.447186 3.012745 L 273.447186 6.924203 L 279.134687 6.924203 L 279.134687 7.913787 L 273.447186 7.913787 L 273.447186 11.99712 Z M 305.353439 13.096079 C 304.264897 13.096079 303.28573 12.856495 302.41073 12.377329 C 301.53573 11.892954 300.84823 11.226287 300.353438 10.37212 C 299.858647 9.517953 299.608647 8.55962 299.608647 7.502328 C 299.608647 6.450245 299.858647 5.491912 300.353438 4.637745 C 300.84823 3.788786 301.540938 3.12212 302.415938 2.637745 C 303.296147 2.158578 304.280522 1.913786 305.369064 1.913786 C 306.186772 1.913786 306.94198 2.049203 307.62948 2.325245 C 308.322189 2.596078 308.905522 2.991911 309.389897 3.517953 L 308.650314 4.257536 C 307.790939 3.387745 306.707605 2.955453 305.400314 2.955453 C 304.530522 2.955453 303.738855 3.15337 303.025313 3.549203 C 302.31698 3.950245 301.759688 4.491911 301.358647 5.18462 C 300.957605 5.87212 300.75448 6.648162 300.75448 7.502328 C 300.75448 8.361703 300.957605 9.137745 301.358647 9.830453 C 301.759688 10.517954 302.31698 11.064829 303.025313 11.460662 C 303.738855 11.856495 304.530522 12.05962 305.400314 12.05962 C 306.72323 12.05962 307.806564 11.616912 308.650314 10.736704 L 309.389897 11.476287 C 308.905522 11.99712 308.31698 12.398162 307.624272 12.679412 C 306.926355 12.955454 306.171147 13.096079 305.353439 13.096079 Z M 325.598232 10.064829 L 319.478439 10.064829 L 318.160731 13.002329 L 316.947189 13.002329 L 321.973231 2.012745 L 323.119065 2.012745 L 328.145107 13.002329 L 326.91594 13.002329 Z M 325.171148 9.12212 L 322.535731 3.21587 L 319.900315 9.12212 Z M 348.212816 2.012745 L 348.212816 13.002329 L 347.098233 13.002329 L 347.098233 4.205453 L 342.780524 11.601287 L 342.228441 11.601287 L 337.915941 4.257536 L 337.915941 13.002329 L 336.801357 13.002329 L 336.801357 2.012745 L 337.759691 2.012745 L 342.530524 10.158579 L 347.254483 2.012745 Z M 362.738859 2.012745 C 364.139901 2.012745 365.238859 2.346078 366.035734 3.012745 C 366.832609 3.68462 367.233651 4.606495 367.233651 5.77837 C 367.233651 6.950245 366.832609 7.87212 366.035734 8.533578 C 365.238859 9.200245 364.139901 9.533578 362.738859 9.533578 L 359.785734 9.533578 L 359.785734 13.002329 L 358.624275 13.002329 L 358.624275 2.012745 Z M 362.707609 8.512745 C 363.796151 8.512745 364.629484 8.273162 365.202401 7.799203 C 365.780526 7.320037 366.066984 6.648162 366.066984 5.77837 C 366.066984 4.887745 365.780526 4.205453 365.202401 3.731495 C 364.629484 3.252328 363.796151 3.012745 362.707609 3.012745 L 359.785734 3.012745 L 359.785734 8.512745 Z M 381.535735 13.096079 C 380.447193 13.096079 379.462818 12.851287 378.577402 12.366912 C 377.697193 11.877329 377.004485 11.210662 376.504485 10.361704 C 376.009693 9.512745 375.759693 8.55962 375.759693 7.502328 C 375.759693 6.450245 376.009693 5.49712 376.504485 4.648161 C 377.004485 3.799203 377.697193 3.132536 378.577402 2.648161 C 379.462818 2.158578 380.447193 1.913786 381.535735 1.913786 C 382.624277 1.913786 383.608652 2.158578 384.483652 2.637745 C 385.353444 3.12212 386.046152 3.788786 386.546152 4.637745 C 387.051361 5.491912 387.301361 6.450245 387.301361 7.502328 C 387.301361 8.55962 387.051361 9.517953 386.546152 10.37212 C 386.046152 11.226287 385.353444 11.892954 384.483652 12.377329 C 383.608652 12.856495 382.624277 13.096079 381.535735 13.096079 Z M 381.535735 12.05962 C 382.405527 12.05962 383.191985 11.861704 383.889902 11.471079 C 384.593027 11.075245 385.14511 10.533579 385.540944 9.835662 C 385.936777 9.137745 386.139902 8.361703 386.139902 7.502328 C 386.139902 6.648162 385.936777 5.87212 385.540944 5.179412 C 385.14511 4.481495 384.593027 3.93462 383.889902 3.543995 C 383.191985 3.148161 382.405527 2.955453 381.535735 2.955453 C 380.671152 2.955453 379.879485 3.148161 379.171152 3.543995 C 378.468027 3.93462 377.910735 4.481495 377.509693 5.179412 C 377.108652 5.87212 376.905527 6.648162 376.905527 7.502328 C 376.905527 8.361703 377.108652 9.137745 377.509693 9.835662 C 377.910735 10.533579 378.468027 11.075245 379.171152 11.471079 C 379.879485 11.861704 380.671152 12.05962 381.535735 12.05962 Z M 381.535735 12.05962 " stroke="#5e2d16" stroke-width="1.079382" stroke-opacity="1" stroke-miterlimit="4"/></svg>